<svg width="687" height="492" viewBox="0 0 687 492" fill="none" xmlns="http://www.w3.org/2000/svg">
<g filter="url(#filter0_i_356_1246)">
<g clip-path="url(#clip0_356_1246)">
<rect x="235.789" width="245" height="344" rx="25" transform="rotate(9.84 235.789 0)" fill="url(#paint0_radial_356_1246)"/>
<path d="M283.978 43.1095L283.289 47.0822L276.005 45.819L272.976 63.2862L268.688 62.5424L271.717 45.0752L264.434 43.8119L265.123 39.8393L283.978 43.1095ZM301.164 46.0904L305.451 46.8342L301.733 68.2741L297.445 67.5303L298.916 59.0489L289.016 57.3318L287.545 65.8131L283.257 65.0694L286.975 43.6295L291.263 44.3733L289.705 53.3591L299.605 55.0763L301.164 46.0904ZM328.975 50.9143L326.93 62.7062C325.836 69.0121 321.344 72.0654 315.574 71.0646C309.836 70.0693 306.635 65.6816 307.728 59.3758L309.774 47.5839L314.062 48.3276L312.016 60.1195C311.382 63.7769 313.084 66.508 316.269 67.0604C319.453 67.6127 322.007 65.6199 322.642 61.9625L324.687 50.1706L328.975 50.9143ZM343.197 75.466L339.46 67.8025L335.046 67.0369L333.864 73.8472L329.576 73.1035L333.295 51.6636L342.344 53.2331C347.168 54.0698 350.228 57.5885 349.462 62.0026C348.942 64.9979 346.904 67.0151 344.147 67.7387L348.399 76.3683L343.197 75.466ZM336.894 56.38L335.735 63.0642L340.338 63.8627C342.703 64.2728 344.882 63.3192 345.237 61.2698C345.592 59.2204 343.862 57.5886 341.497 57.1785L336.894 56.38ZM362.336 56.3109C365.961 56.9398 370.413 59.1735 369.966 64.7471L365.71 64.0088C365.77 61.9732 364.722 60.5248 362.011 60.0545C359.646 59.6444 357.943 60.2908 357.637 62.0564C357.369 63.6013 358.389 64.4603 360.367 65.2257L362.802 66.1676C366.848 67.7463 368.965 69.7699 368.352 73.3011C367.647 77.3684 363.846 79.4372 358.801 78.5622C353.504 77.6434 350.307 74.166 350.79 69.508L355.047 70.2463C355.005 72.545 356.751 74.2768 359.715 74.7909C362.079 75.2011 363.583 74.5849 363.845 73.0715C364.009 72.1256 363.643 71.0553 361.412 70.2462L358.059 68.9825C353.945 67.4245 352.456 64.9578 353.031 61.6472C353.742 57.5484 357.448 55.4633 362.336 56.3109ZM383.348 60.3453C389.907 61.4828 394.032 66.9077 392.982 72.9613C391.91 79.141 386.188 82.9227 379.63 81.7852L371.401 80.3579L375.119 58.918L383.348 60.3453ZM380.319 77.8125C384.26 78.4961 387.969 76.0216 388.631 72.2066C389.271 68.5177 386.601 65.0016 382.659 64.318L378.718 63.6344L376.378 77.1289L380.319 77.8125ZM410.016 87.0556L408.994 82.4614L399.125 80.7497L396.616 84.7314L392.013 83.933L405.032 64.1064L409.037 64.8009L414.588 87.8486L410.016 87.0556ZM401.332 77.2026L408.079 78.3729L406.127 69.5902L401.332 77.2026ZM431.945 68.7743L436.706 69.6001L425.699 82.5009L424.474 89.5634L420.123 88.8087L421.348 81.7462L415.297 65.8868L420.058 66.7126L424.23 77.8616L431.945 68.7743Z" fill="#FAFAFA"/>
<path d="M284.91 148.58L276.37 147.099L272.259 137.589L272.215 137.581L266.666 136.619L265.185 145.159L257.858 143.888L262.972 114.408L275.847 116.642C283.174 117.913 287.381 122.751 286.276 129.124C285.606 132.982 283.201 135.78 279.764 137.059L284.91 148.58ZM269.178 122.139L267.809 130.029L273.228 130.969C276.046 131.458 278.528 130.28 278.949 127.853C279.363 125.468 277.415 123.568 274.597 123.079L269.178 122.139ZM324.64 125.105L319.527 154.585L312.2 153.314L314.764 138.531L306.466 147.496L306.458 147.54L302.383 146.833L302.391 146.789L297.568 135.459L295.032 150.336L287.706 149.065L292.819 119.585L298.281 120.533L306 138.082L319.177 124.157L324.64 125.105ZM350.225 153.791L357.075 154.979L356.045 160.919L334.759 157.227L335.789 151.287L343.159 152.566L345.881 136.872L338.576 137.793L339.726 131.16L349.93 129.491L354.308 130.251L350.225 153.791ZM376.2 133.467C384.697 134.941 388.751 142.209 387.202 151.139C385.653 160.07 379.389 165.548 370.892 164.074C362.394 162.601 358.341 155.333 359.89 146.402C361.439 137.472 367.703 131.993 376.2 133.467ZM371.997 157.701C376.375 158.461 379.378 155.052 380.266 149.936C381.153 144.821 379.474 140.6 375.095 139.84C370.716 139.081 367.714 142.49 366.826 147.605C365.939 152.721 367.618 156.942 371.997 157.701ZM407.387 154.596C409.706 156.159 411.051 158.447 410.502 161.611C409.585 166.9 404.422 169.89 398.136 168.8C391.676 167.679 387.993 163.423 388.285 157.624L395.134 158.812C395.135 160.866 396.644 162.468 399.158 162.904C401.499 163.31 403.467 162.267 403.805 160.316C404.158 158.278 402.599 156.713 399.781 156.224L397.353 155.803L398.286 150.427L400.713 150.848C403.141 151.269 404.899 150.145 405.245 148.151C405.598 146.113 404.307 144.55 402.139 144.174C399.798 143.768 398.048 144.848 397.513 146.899L390.707 145.719C392.009 140.273 396.725 137.027 403.228 138.155C409.384 139.223 412.761 143.694 411.821 149.113C411.318 152.018 409.635 153.735 407.387 154.596Z" fill="#FAFAFA"/>
<g clip-path="url(#clip1_356_1246)">
<path d="M295.979 252.755C296.262 251.121 297.183 249.668 298.538 248.713C299.893 247.759 301.572 247.381 303.205 247.665L336.459 253.432" stroke="#FAFAFA" stroke-width="4" stroke-linecap="round" stroke-linejoin="round"/>
<path d="M309.614 210.716L342.867 216.484L334.322 265.749L301.069 259.981C299.436 259.697 297.982 258.777 297.027 257.422C296.073 256.067 295.696 254.388 295.979 252.755L302.387 215.806C302.671 214.173 303.591 212.719 304.946 211.765C306.302 210.81 307.98 210.433 309.614 210.716Z" stroke="#FAFAFA" stroke-width="4" stroke-linecap="round" stroke-linejoin="round"/>
</g>
<rect x="220.019" y="272.311" width="183" height="42" rx="21" transform="rotate(9.84 220.019 272.311)" stroke="#FAFAFA" stroke-width="2"/>
<path d="M239.344 292.811C242.678 293.39 244.501 295.801 243.997 298.709C243.472 301.736 240.879 303.625 237.545 303.046C234.447 302.509 232.551 300.378 232.547 297.454L234.368 297.77C234.493 299.716 235.79 301.086 237.824 301.438C240.117 301.836 241.878 300.534 242.239 298.453C242.583 296.467 241.312 294.809 238.853 294.382L234.119 293.586L235.464 285.83L245.231 287.523L244.943 289.179L236.903 287.784L236.128 292.253L239.344 292.811ZM248.222 295.545C247.56 295.43 247.106 294.815 247.225 294.13C247.34 293.467 247.97 293.065 248.632 293.18C249.318 293.299 249.776 293.89 249.661 294.552C249.542 295.238 248.908 295.664 248.222 295.545ZM246.664 304.531C246.002 304.416 245.548 303.801 245.667 303.115C245.782 302.453 246.412 302.051 247.074 302.166C247.76 302.285 248.217 302.876 248.102 303.538C247.984 304.224 247.349 304.65 246.664 304.531ZM260.068 298.257C261.604 299.23 262.316 300.742 262 302.563C261.537 305.235 258.935 306.756 255.766 306.207C252.597 305.657 250.642 303.589 250.762 300.93L252.583 301.246C252.564 302.899 253.944 304.21 256.049 304.575C258.224 304.952 259.947 304.009 260.251 302.259C260.566 300.438 259.282 298.998 257.059 298.612L255.758 298.386L256.025 296.849L257.325 297.075C259.265 297.411 260.723 296.446 261.026 294.696C261.342 292.876 260.219 291.487 258.185 291.135C256.27 290.802 254.793 291.594 254.325 293.169L252.48 292.849C253.16 290.336 255.461 289.006 258.441 289.522C261.538 290.06 263.276 292.261 262.804 294.98C262.517 296.636 261.539 297.781 260.068 298.257ZM273.983 292.218C278.382 292.981 280.369 296.833 279.516 301.752C278.662 306.671 275.494 309.629 271.096 308.866C266.698 308.103 264.711 304.251 265.564 299.332C266.417 294.414 269.585 291.455 273.983 292.218ZM271.391 307.163C274.678 307.733 276.947 305.326 277.624 301.424C278.301 297.522 276.979 294.467 273.692 293.897C270.405 293.327 268.132 295.758 267.456 299.66C266.779 303.562 268.104 306.593 271.391 307.163ZM283.454 304.993L283.741 303.337L291.592 304.699L291.305 306.354L283.454 304.993ZM294.926 296.143L305.946 298.054L305.749 299.189L295.826 312.863L293.722 312.498L303.305 299.375L294.627 297.869L294.926 296.143ZM307.495 305.825C306.833 305.711 306.379 305.096 306.498 304.41C306.613 303.748 307.243 303.346 307.905 303.461C308.591 303.58 309.048 304.171 308.934 304.833C308.815 305.519 308.181 305.944 307.495 305.825ZM305.936 314.811C305.274 314.696 304.82 314.082 304.939 313.396C305.054 312.734 305.684 312.332 306.346 312.447C307.032 312.566 307.49 313.157 307.375 313.819C307.256 314.504 306.622 314.93 305.936 314.811ZM319.34 308.538C320.877 309.511 321.589 311.023 321.273 312.843C320.809 315.515 318.207 317.037 315.038 316.488C311.87 315.938 309.914 313.869 310.035 311.211L311.855 311.527C311.837 313.18 313.217 314.491 315.321 314.856C317.497 315.233 319.22 314.29 319.523 312.54C319.839 310.719 318.554 309.278 316.331 308.893L315.031 308.667L315.297 307.13L316.598 307.356C318.537 307.692 319.995 306.727 320.299 304.977C320.615 303.156 319.491 301.768 317.458 301.415C315.542 301.083 314.065 301.874 313.597 303.449L311.753 303.13C312.432 300.617 314.734 299.286 317.713 299.803C320.811 300.34 322.548 302.542 322.077 305.261C321.789 306.916 320.811 308.062 319.34 308.538ZM333.256 302.499C337.654 303.262 339.641 307.114 338.788 312.033C337.935 316.951 334.767 319.909 330.368 319.147C325.97 318.384 323.983 314.531 324.836 309.613C325.689 304.694 328.858 301.736 333.256 302.499ZM330.664 317.444C333.951 318.014 336.22 315.606 336.896 311.705C337.573 307.803 336.252 304.748 332.965 304.178C329.678 303.608 327.405 306.039 326.728 309.941C326.051 313.843 327.377 316.874 330.664 317.444ZM356.222 306.775C359.935 307.419 362.049 309.978 361.491 313.194C360.913 316.528 357.954 318.28 354.099 317.611L350.529 316.992L349.626 322.194L347.758 321.87L350.547 305.791L356.222 306.775ZM354.564 315.914C357.213 316.373 359.249 315.168 359.647 312.874C360.024 310.698 358.505 308.925 355.856 308.465L352.12 307.817L350.828 315.266L354.564 315.914ZM381.193 311.106L378.404 327.186L376.536 326.862L378.615 314.873L371.701 322.857L370.472 322.643L366.611 312.742L364.571 324.787L362.702 324.463L365.491 308.383L366.91 308.629L371.48 320.48L379.774 310.86L381.193 311.106Z" fill="white"/>
<path d="M215.22 77.627L505.88 128.042" stroke="white" stroke-linecap="round"/>
</g>
<rect x="234.974" y="-1.15619" width="247" height="346" rx="26" transform="rotate(9.84 234.974 -1.15619)" stroke="url(#paint1_linear_356_1246)" stroke-opacity="0.4" stroke-width="2"/>
</g>
<g filter="url(#filter1_i_356_1246)">
<g clip-path="url(#clip2_356_1246)">
<rect y="243.329" width="246" height="344" rx="25" transform="rotate(-43.82 0 243.329)" fill="url(#paint2_radial_356_1246)"/>
<path d="M78.8582 215.11L93.9247 230.81L90.7846 233.823L82.3651 225.05L84.4823 235.436L82.589 237.253L82.5669 237.23L72.1637 234.662L80.718 243.483L77.578 246.497L62.5114 230.797L64.7279 228.67L79.8133 232.466L76.6417 217.237L78.8582 215.11ZM89.7708 204.105C94.2961 199.763 101.401 199.864 105.743 204.389C110.086 208.914 109.894 216.017 105.369 220.36C100.844 224.702 93.7393 224.601 89.3966 220.076C85.0538 215.551 85.2454 208.448 89.7708 204.105ZM102.555 217.427C105.418 214.68 105.304 210.31 102.557 207.447C99.8096 204.584 95.4477 204.29 92.5847 207.038C89.7217 209.785 89.8354 214.155 92.5828 217.018C95.3302 219.881 99.6922 220.175 102.555 217.427ZM112.154 183.157L115.294 180.144L130.361 195.844L127.937 198.171L109.979 196.466L119.44 206.324L116.3 209.338L101.234 193.637L103.565 191.4L121.881 193.293L112.154 183.157ZM124.727 171.093C129.529 166.484 136.344 166.375 140.598 170.808C144.94 175.334 144.596 182.184 139.793 186.793L133.767 192.576L118.701 176.875L124.727 171.093ZM137.002 183.884C139.888 181.114 140.092 176.66 137.412 173.866C134.819 171.165 130.405 171.232 127.518 174.002L124.632 176.771L134.115 186.653L137.002 183.884ZM162.045 165.439L157.738 163.54L150.512 170.475L152.232 174.856L148.861 178.091L140.606 155.854L143.538 153.041L165.393 162.227L162.045 165.439ZM148.962 166.596L153.903 161.854L145.672 158.222L148.962 166.596ZM160.313 136.942L163.8 133.597L167.669 150.107L172.632 155.279L169.446 158.337L164.483 153.165L148.123 148.641L151.609 145.295L163.062 148.541L160.313 136.942Z" fill="#FAFAFA"/>
<path d="M151.168 289.526L144.914 295.528L134.817 293.204L134.786 293.234L130.722 297.134L136.724 303.388L131.358 308.536L110.642 286.948L120.071 277.9C125.436 272.752 131.826 272.23 136.305 276.897C139.016 279.722 139.844 283.318 138.838 286.845L151.168 289.526ZM120.546 286.53L126.091 292.308L130.06 288.5C132.123 286.52 132.645 283.823 130.939 282.045C129.264 280.299 126.578 280.742 124.515 282.722L120.546 286.53ZM155.801 243.612L176.517 265.2L171.152 270.349L160.764 259.523L163.068 271.52L163.099 271.552L160.115 274.416L160.084 274.384L148.099 271.554L158.581 282.413L153.215 287.562L132.499 265.974L136.499 262.135L155.209 266.317L151.801 247.451L155.801 243.612ZM191.53 242.439L199.244 235.036L203.418 239.385L188.021 254.161L185.553 251.589L184.78 236.232C184.572 232.773 184.492 230.593 183.243 229.291C182.207 228.212 180.472 227.865 178.694 229.571C177.043 231.155 177.065 233.085 178.552 234.952L173.441 239.857C169.302 235.29 169.639 229.54 174.559 224.818C179.48 220.096 184.95 220.458 188.575 224.236C190.555 226.299 191.056 229.172 191.257 234.529L191.53 242.439ZM209.605 225.094L217.319 217.691L221.493 222.04L206.096 236.816L203.628 234.244L202.855 218.887C202.646 215.428 202.567 213.248 201.318 211.946C200.282 210.867 198.546 210.52 196.768 212.226C195.118 213.81 195.14 215.74 196.626 217.607L191.515 222.512C187.377 217.945 187.713 212.195 192.634 207.473C197.555 202.751 203.024 203.113 206.65 206.89C208.63 208.954 209.131 211.827 209.332 217.184L209.605 225.094ZM202.094 199.188L217.84 184.077L220.734 187.093L230.271 213.616L224.429 219.222L215.932 195.116L206.694 203.982L202.094 199.188Z" fill="#FAFAFA"/>
<g clip-path="url(#clip3_356_1246)">
<path d="M239.852 290.351L214.599 314.585C212.607 316.497 212.542 319.662 214.454 321.655L238.688 346.908C240.599 348.9 243.765 348.966 245.757 347.054L271.01 322.82C273.003 320.908 273.068 317.743 271.156 315.75L246.922 290.497C245.01 288.505 241.845 288.439 239.852 290.351Z" stroke="#FAFAFA" stroke-width="4" stroke-linecap="round" stroke-linejoin="round"/>
<path d="M230.979 291.937L237.903 299.152" stroke="#FAFAFA" stroke-width="4" stroke-linecap="round" stroke-linejoin="round"/>
<path d="M216.549 305.785L223.473 313" stroke="#FAFAFA" stroke-width="4" stroke-linecap="round" stroke-linejoin="round"/>
<path d="M221.377 328.87L253.846 297.712" stroke="#FAFAFA" stroke-width="4" stroke-linecap="round" stroke-linejoin="round"/>
<path d="M242.586 329.307L249.656 329.453L249.947 315.313" stroke="#FAFAFA" stroke-width="4" stroke-linecap="round" stroke-linejoin="round"/>
</g>
<rect x="210.006" y="417.396" width="184" height="42" rx="21" transform="rotate(-43.82 210.006 417.396)" stroke="#FAFAFA" stroke-width="2"/>
<path d="M244.281 419.731L247.346 416.79L248.443 417.932L240.702 425.36L239.606 424.218L242.93 421.027L234.206 411.936L232.152 416.069L230.922 414.788L233.316 409.83L234.078 409.099L244.281 419.731ZM244.856 409.001C244.371 409.466 243.607 409.467 243.125 408.965C242.66 408.48 242.709 407.734 243.194 407.269C243.696 406.787 244.444 406.768 244.909 407.253C245.391 407.756 245.358 408.519 244.856 409.001ZM251.171 415.581C250.686 416.046 249.922 416.047 249.44 415.545C248.975 415.06 249.024 414.314 249.509 413.849C250.011 413.367 250.758 413.349 251.224 413.834C251.705 414.336 251.673 415.099 251.171 415.581ZM254.06 401.066C255.754 400.405 257.394 400.727 258.674 402.061C260.551 404.017 260.235 407.015 257.915 409.242C255.594 411.469 252.769 411.818 250.699 410.146L252.032 408.866C253.353 409.861 255.227 409.526 256.768 408.047C258.361 406.518 258.622 404.572 257.392 403.29C256.113 401.957 254.191 402.138 252.563 403.7L251.611 404.614L250.53 403.489L251.483 402.575C252.903 401.212 252.99 399.465 251.76 398.184C250.48 396.851 248.697 396.933 247.207 398.362C245.805 399.708 245.567 401.366 246.558 402.677L245.208 403.973C243.586 401.937 243.878 399.295 246.06 397.201C248.328 395.024 251.131 394.929 253.042 396.92C254.205 398.132 254.549 399.599 254.06 401.066ZM257.442 386.278C260.663 383.188 264.943 383.87 268.4 387.472C271.856 391.073 272.361 395.378 269.141 398.469C265.92 401.56 261.639 400.878 258.183 397.276C254.726 393.674 254.221 389.369 257.442 386.278ZM267.944 397.222C270.351 394.913 269.756 391.658 267.014 388.801C264.272 385.944 261.029 385.198 258.622 387.508C256.215 389.818 256.826 393.089 259.568 395.947C262.31 398.804 265.537 399.532 267.944 397.222ZM273.344 386.219L272.181 385.007L277.93 379.49L279.093 380.702L273.344 386.219ZM286.328 379.381L292.025 373.914L293.121 375.057L285.364 382.502L284.666 381.774L284.57 374.049C284.563 371.096 284.55 369.279 283.353 368.032C282.157 366.786 280.276 366.628 278.648 368.19C277.176 369.603 276.985 371.449 278.158 373.018L276.808 374.314C274.901 372.119 275.215 369.223 277.553 366.979C280.012 364.62 282.86 364.78 284.738 366.737C286.1 368.157 286.265 370.061 286.244 373.575L286.328 379.381ZM289.478 366.179C288.993 366.645 288.229 366.646 287.748 366.144C287.282 365.659 287.332 364.913 287.816 364.448C288.319 363.966 289.066 363.947 289.531 364.432C290.013 364.934 289.98 365.697 289.478 366.179ZM295.793 372.76C295.308 373.225 294.544 373.226 294.062 372.724C293.597 372.239 293.646 371.493 294.131 371.028C294.633 370.546 295.381 370.528 295.846 371.012C296.328 371.515 296.295 372.278 295.793 372.76ZM298.682 358.245C300.376 357.584 302.016 357.906 303.296 359.24C305.174 361.196 304.857 364.194 302.537 366.421C300.216 368.648 297.392 368.997 295.321 367.325L296.655 366.045C297.975 367.04 299.849 366.705 301.39 365.226C302.983 363.697 303.244 361.751 302.014 360.469C300.735 359.136 298.813 359.317 297.185 360.879L296.233 361.793L295.153 360.667L296.105 359.753C297.525 358.391 297.612 356.644 296.382 355.363C295.103 354.029 293.319 354.112 291.83 355.541C290.427 356.887 290.189 358.545 291.181 359.856L289.83 361.152C288.208 359.115 288.5 356.474 290.682 354.38C292.951 352.203 295.753 352.108 297.664 354.099C298.828 355.311 299.171 356.778 298.682 358.245ZM302.064 343.457C305.285 340.366 309.565 341.049 313.022 344.65C316.478 348.252 316.984 352.557 313.763 355.648C310.542 358.739 306.262 358.057 302.805 354.455C299.349 350.853 298.843 346.548 302.064 343.457ZM312.566 354.401C314.973 352.091 314.378 348.837 311.637 345.98C308.895 343.123 305.651 342.377 303.244 344.687C300.837 346.997 301.449 350.268 304.191 353.125C306.932 355.983 310.159 356.711 312.566 354.401ZM319.118 327.491C321.836 324.882 325.15 324.696 327.41 327.051C329.753 329.492 329.411 332.914 326.589 335.623L323.974 338.132L327.63 341.942L326.262 343.255L314.962 331.479L319.118 327.491ZM325.497 334.242C327.436 332.381 327.671 330.027 326.06 328.347C324.531 326.754 322.202 326.927 320.262 328.788L317.526 331.413L322.761 336.868L325.497 334.242ZM337.404 309.943L348.703 321.719L347.335 323.031L338.91 314.252L341.244 324.552L340.344 325.417L330.08 322.659L338.573 331.44L337.205 332.753L325.905 320.977L326.944 319.98L339.199 323.322L336.365 310.941L337.404 309.943Z" fill="white"/>
<path d="M50.3411 305.897L263.189 101.641" stroke="white" stroke-linecap="round"/>
</g>
<rect x="-1.41391" y="243.3" width="248" height="346" rx="26" transform="rotate(-43.82 -1.41391 243.3)" stroke="url(#paint3_linear_356_1246)" stroke-opacity="0.4" stroke-width="2"/>
</g>
<g filter="url(#filter2_i_356_1246)">
<g clip-path="url(#clip4_356_1246)">
<rect x="436.956" y="80" width="263" height="344" rx="25" transform="rotate(18.29 436.956 80)" fill="url(#paint4_radial_356_1246)"/>
<path d="M498.637 136.449L497.372 140.277L490.353 137.957L484.79 154.79L480.658 153.424L486.221 136.592L479.203 134.272L480.468 130.443L498.637 136.449ZM519.726 143.419L515.97 154.782C513.961 160.859 509.07 163.219 503.509 161.381C497.98 159.554 495.458 154.743 497.466 148.667L501.222 137.303L505.354 138.669L501.598 150.032C500.434 153.557 501.716 156.508 504.785 157.523C507.853 158.537 510.673 156.941 511.838 153.417L515.594 142.053L519.726 143.419ZM537.815 153.645L526.755 149.989L525.189 154.729L535.033 157.983L533.768 161.811L523.923 158.557L522.457 162.993L533.517 166.649L532.251 170.477L517.06 165.456L523.889 144.795L539.08 149.816L537.815 153.645ZM550.596 153.218C554.09 154.373 558.165 157.236 556.904 162.684L552.802 161.328C553.161 159.324 552.338 157.737 549.725 156.873C547.446 156.12 545.666 156.509 545.104 158.211C544.611 159.699 545.494 160.699 547.339 161.747L549.609 163.036C553.379 165.192 555.176 167.505 554.051 170.908C552.755 174.827 548.691 176.315 543.83 174.708C538.725 173.021 536.074 169.112 537.237 164.575L541.338 165.931C540.96 168.199 542.432 170.168 545.288 171.112C547.567 171.865 549.144 171.477 549.626 170.018C549.928 169.107 549.722 167.994 547.635 166.866L544.504 165.124C540.663 162.978 539.553 160.319 540.608 157.129C541.913 153.179 545.886 151.661 550.596 153.218ZM570.788 160.296C577.108 162.385 580.391 168.357 578.463 174.191C576.495 180.146 570.279 183.046 563.959 180.957L556.029 178.336L562.858 157.675L570.788 160.296ZM565.224 177.129C569.022 178.384 573.055 176.482 574.27 172.805C575.445 169.25 573.32 165.38 569.522 164.125L565.724 162.869L561.426 175.873L565.224 177.129ZM593.241 190.635L592.905 185.941L583.395 182.798L580.328 186.367L575.892 184.901L591.684 167.203L595.542 168.478L597.646 192.092L593.241 190.635ZM586.099 179.613L592.601 181.762L591.961 172.788L586.099 179.613ZM617.618 175.775L622.206 177.291L609.423 188.435L607.174 195.241L602.981 193.855L605.23 187.049L601.576 170.472L606.164 171.989L608.652 183.63L617.618 175.775Z" fill="#FAFAFA"/>
<path d="M473.685 237.482L465.455 234.762L462.786 224.751L462.744 224.737L457.397 222.969L454.676 231.2L447.616 228.866L457.006 200.457L469.414 204.559C476.474 206.892 479.924 212.296 477.894 218.437C476.666 222.155 473.875 224.57 470.287 225.33L473.685 237.482ZM462.009 209.016L459.495 216.619L464.718 218.345C467.433 219.243 470.061 218.443 470.834 216.104C471.594 213.806 469.946 211.639 467.231 210.742L462.009 209.016ZM516.433 220.1L507.043 248.508L499.983 246.174L504.691 231.928L495.166 239.577L495.152 239.619L491.225 238.321L491.239 238.279L488.133 226.363L483.439 240.706L476.379 238.373L485.768 209.964L491.032 211.704L496.088 230.197L511.169 218.36L516.433 220.1ZM534.183 251.13L544.335 254.485L542.443 260.209L522.181 253.511L523.3 250.128L536.512 242.26C539.471 240.458 541.361 239.368 541.927 237.655C542.396 236.235 541.891 234.538 539.551 233.765C537.379 233.047 535.684 233.97 534.729 236.157L528.003 233.934C530.104 228.14 535.343 225.747 541.819 227.888C548.294 230.028 550.533 235.031 548.89 240.003C547.992 242.718 545.687 244.505 541.046 247.188L534.183 251.13ZM557.968 258.991L568.12 262.347L566.228 268.07L545.966 261.373L547.085 257.989L560.297 250.122C563.256 248.32 565.146 247.23 565.712 245.517C566.181 244.096 565.676 242.4 563.337 241.627C561.164 240.909 559.469 241.831 558.515 244.018L551.788 241.795C553.889 236.002 559.128 233.609 565.604 235.749C572.079 237.89 574.318 242.893 572.675 247.865C571.777 250.58 569.472 252.367 564.832 255.05L557.968 258.991ZM591.092 260.486C593.156 262.373 594.151 264.833 593.142 267.883C591.458 272.98 585.912 275.178 579.854 273.176C573.629 271.119 570.612 266.368 571.752 260.674L578.353 262.856C578.052 264.888 579.309 266.694 581.732 267.495C583.988 268.24 586.087 267.497 586.708 265.617C587.357 263.654 586.045 261.876 583.33 260.979L580.99 260.205L582.702 255.025L585.042 255.798C587.381 256.572 589.285 255.718 589.921 253.796C590.57 251.833 589.522 250.096 587.433 249.406C585.177 248.66 583.287 249.472 582.457 251.422L575.898 249.254C577.985 244.059 583.127 241.541 589.394 243.613C595.326 245.573 598.01 250.492 596.284 255.714C595.359 258.513 593.442 259.965 591.092 260.486Z" fill="#FAFAFA"/>
<g clip-path="url(#clip5_356_1246)">
<path d="M514.859 311.124L521.216 323.757" stroke="#FAFAFA" stroke-width="4" stroke-linecap="round" stroke-linejoin="round"/>
<path d="M475.421 346.8L511.741 328.525L505.384 315.892L469.064 334.167L461.188 346.045L475.421 346.8Z" stroke="#FAFAFA" stroke-width="4" stroke-linecap="round" stroke-linejoin="round"/>
</g>
<rect x="381.343" y="347.038" width="201" height="42" rx="21" transform="rotate(18.29 381.343 347.038)" stroke="#FAFAFA" stroke-width="2"/>
<path d="M399.469 363.974C402.819 365.081 404.474 368.105 403.457 371.181C403.02 372.503 402.18 373.439 401.006 374.39L393.938 379.637L391.819 378.937L397.167 374.916C396.757 374.856 396.355 374.774 395.922 374.631C392.595 373.531 390.91 370.522 391.934 367.423C392.973 364.279 396.119 362.867 399.469 363.974ZM399.735 372.959L399.864 372.875C400.841 372.212 401.401 371.513 401.725 370.533C402.448 368.345 401.281 366.216 398.98 365.455C396.655 364.687 394.472 365.709 393.742 367.92C393.019 370.107 394.147 372.275 396.472 373.043C397.657 373.435 398.802 373.409 399.735 372.959ZM406.336 374.332C405.698 374.121 405.34 373.447 405.558 372.786C405.769 372.148 406.451 371.842 407.089 372.053C407.75 372.272 408.116 372.924 407.905 373.562C407.687 374.222 406.997 374.551 406.336 374.332ZM403.474 382.991C402.836 382.78 402.478 382.106 402.696 381.445C402.907 380.807 403.589 380.502 404.227 380.713C404.888 380.931 405.254 381.583 405.043 382.221C404.825 382.882 404.135 383.21 403.474 382.991ZM417.655 378.756C419.031 379.944 419.514 381.544 418.934 383.298C418.083 385.873 415.285 386.996 412.231 385.987C409.178 384.978 407.548 382.644 408.057 380.032L409.812 380.612C409.55 382.245 410.723 383.744 412.751 384.415C414.847 385.108 416.69 384.427 417.247 382.741C417.827 380.986 416.768 379.373 414.626 378.665L413.373 378.25L413.862 376.769L415.116 377.183C416.984 377.801 418.569 377.061 419.126 375.375C419.706 373.62 418.799 372.082 416.839 371.434C414.993 370.824 413.416 371.389 412.722 372.879L410.944 372.291C411.986 369.905 414.457 368.928 417.329 369.877C420.314 370.863 421.709 373.296 420.843 375.917C420.315 377.512 419.18 378.501 417.655 378.756ZM432.307 374.827C436.545 376.228 437.944 380.331 436.378 385.07C434.811 389.81 431.243 392.271 427.004 390.87C422.766 389.469 421.366 385.366 422.933 380.627C424.5 375.887 428.068 373.426 432.307 374.827ZM427.546 389.229C430.714 390.276 433.312 388.228 434.555 384.468C435.797 380.708 434.939 377.492 431.772 376.445C428.604 375.398 425.999 377.469 424.756 381.229C423.513 384.989 424.379 388.182 427.546 389.229ZM439.797 388.855L440.325 387.26L447.89 389.76L447.363 391.355L439.797 388.855ZM456.083 398.509L460.116 399.842L459.619 401.346L449.433 397.98L449.93 396.476L454.305 397.922L458.26 385.958L453.646 386.076L454.203 384.39L459.705 384.186L460.707 384.518L456.083 398.509ZM467.791 402.379L471.825 403.712L471.328 405.216L461.142 401.85L461.639 400.346L466.014 401.792L469.968 389.828L465.354 389.946L465.911 388.26L471.413 388.056L472.416 388.388L467.791 402.379ZM477.544 397.868C476.906 397.657 476.548 396.983 476.766 396.322C476.977 395.684 477.659 395.378 478.297 395.589C478.958 395.808 479.324 396.46 479.113 397.098C478.895 397.758 478.205 398.087 477.544 397.868ZM474.682 406.527C474.044 406.316 473.686 405.642 473.904 404.981C474.115 404.343 474.797 404.038 475.435 404.249C476.096 404.467 476.462 405.119 476.251 405.757C476.033 406.418 475.343 406.746 474.682 406.527ZM488.863 402.292C490.239 403.48 490.722 405.08 490.142 406.834C489.291 409.409 486.493 410.532 483.439 409.523C480.386 408.514 478.756 406.18 479.265 403.568L481.02 404.148C480.758 405.781 481.931 407.28 483.959 407.951C486.055 408.644 487.898 407.963 488.455 406.277C489.035 404.522 487.976 402.909 485.834 402.201L484.581 401.786L485.07 400.305L486.324 400.719C488.192 401.337 489.777 400.597 490.334 398.911C490.914 397.156 490.007 395.618 488.047 394.97C486.201 394.36 484.624 394.925 483.93 396.415L482.152 395.827C483.194 393.441 485.665 392.464 488.537 393.413C491.522 394.399 492.917 396.832 492.051 399.453C491.523 401.048 490.388 402.037 488.863 402.292ZM503.515 398.363C507.753 399.764 509.152 403.867 507.586 408.606C506.019 413.346 502.451 415.807 498.212 414.406C493.974 413.005 492.574 408.902 494.141 404.163C495.708 399.423 499.276 396.962 503.515 398.363ZM498.754 412.765C501.922 413.812 504.52 411.764 505.763 408.004C507.005 404.244 506.147 401.028 502.98 399.981C499.812 398.934 497.207 401.005 495.964 404.765C494.721 408.525 495.587 411.718 498.754 412.765ZM527.318 423.723L526.835 418.76L518.837 416.117L515.491 419.814L513.554 419.173L525.672 405.99L527.381 406.555L529.255 424.363L527.318 423.723ZM520.078 414.732L526.641 416.901L525.814 408.388L520.078 414.732ZM552.426 414.833L547.304 430.329L545.504 429.734L549.323 418.18L541.31 425.061L540.126 424.67L537.762 414.309L533.974 425.922L532.173 425.327L537.295 409.832L538.662 410.284L541.441 422.678L551.059 414.381L552.426 414.833Z" fill="white"/>
<path d="M413.749 156.586L693.846 249.165" stroke="white" stroke-linecap="round"/>
</g>
<rect x="436.321" y="78.7367" width="265" height="346" rx="26" transform="rotate(18.29 436.321 78.7367)" stroke="url(#paint5_linear_356_1246)" stroke-opacity="0.4" stroke-width="2"/>
</g>
<defs>
<filter id="filter0_i_356_1246" x="135" y="-42" width="384.185" height="464.809" filterUnits="userSpaceOnUse" color-interpolation-filters="sRGB">
<feFlood flood-opacity="0" result="BackgroundImageFix"/>
<feBlend mode="normal" in="SourceGraphic" in2="BackgroundImageFix" result="shape"/>
<feColorMatrix in="SourceAlpha" type="matrix" values="0 0 0 0 0 0 0 0 0 0 0 0 0 0 0 0 0 0 127 0" result="hardAlpha"/>
<feOffset dx="-5" dy="-5"/>
<feGaussianBlur stdDeviation="125"/>
<feComposite in2="hardAlpha" operator="arithmetic" k2="-1" k3="1"/>
<feColorMatrix type="matrix" values="0 0 0 0 1 0 0 0 0 1 0 0 0 0 1 0 0 0 0.02 0"/>
<feBlend mode="normal" in2="shape" result="effect1_innerShadow_356_1246"/>
</filter>
<filter id="filter1_i_356_1246" x="-42" y="31" width="499.677" height="502.532" filterUnits="userSpaceOnUse" color-interpolation-filters="sRGB">
<feFlood flood-opacity="0" result="BackgroundImageFix"/>
<feBlend mode="normal" in="SourceGraphic" in2="BackgroundImageFix" result="shape"/>
<feColorMatrix in="SourceAlpha" type="matrix" values="0 0 0 0 0 0 0 0 0 0 0 0 0 0 0 0 0 0 127 0" result="hardAlpha"/>
<feOffset dx="-5" dy="-5"/>
<feGaussianBlur stdDeviation="125"/>
<feComposite in2="hardAlpha" operator="arithmetic" k2="-1" k3="1"/>
<feColorMatrix type="matrix" values="0 0 0 0 1 0 0 0 0 1 0 0 0 0 1 0 0 0 0.02 0"/>
<feBlend mode="normal" in2="shape" result="effect1_innerShadow_356_1246"/>
</filter>
<filter id="filter2_i_356_1246" x="287" y="38" width="441.67" height="493.158" filterUnits="userSpaceOnUse" color-interpolation-filters="sRGB">
<feFlood flood-opacity="0" result="BackgroundImageFix"/>
<feBlend mode="normal" in="SourceGraphic" in2="BackgroundImageFix" result="shape"/>
<feColorMatrix in="SourceAlpha" type="matrix" values="0 0 0 0 0 0 0 0 0 0 0 0 0 0 0 0 0 0 127 0" result="hardAlpha"/>
<feOffset dx="-5" dy="-5"/>
<feGaussianBlur stdDeviation="125"/>
<feComposite in2="hardAlpha" operator="arithmetic" k2="-1" k3="1"/>
<feColorMatrix type="matrix" values="0 0 0 0 1 0 0 0 0 1 0 0 0 0 1 0 0 0 0.02 0"/>
<feBlend mode="normal" in2="shape" result="effect1_innerShadow_356_1246"/>
</filter>
<radialGradient id="paint0_radial_356_1246" cx="0" cy="0" r="1" gradientUnits="userSpaceOnUse" gradientTransform="translate(235.789) rotate(54.5412) scale(422.328 277.325)">
<stop stop-color="white" stop-opacity="0.4"/>
<stop offset="1" stop-color="white" stop-opacity="0"/>
</radialGradient>
<linearGradient id="paint1_linear_356_1246" x1="235.789" y1="0" x2="335.337" y2="369.991" gradientUnits="userSpaceOnUse">
<stop stop-color="white"/>
<stop offset="1" stop-color="#EEEDED" stop-opacity="0.5"/>
</linearGradient>
<radialGradient id="paint2_radial_356_1246" cx="0" cy="0" r="1" gradientUnits="userSpaceOnUse" gradientTransform="translate(0 243.329) rotate(54.4308) scale(422.909 278.074)">
<stop stop-color="white" stop-opacity="0.4"/>
<stop offset="1" stop-color="white" stop-opacity="0"/>
</radialGradient>
<linearGradient id="paint3_linear_356_1246" x1="0" y1="243.329" x2="99.1985" y2="613.523" gradientUnits="userSpaceOnUse">
<stop stop-color="white"/>
<stop offset="1" stop-color="#EEEDED" stop-opacity="0.5"/>
</linearGradient>
<radialGradient id="paint4_radial_356_1246" cx="0" cy="0" r="1" gradientUnits="userSpaceOnUse" gradientTransform="translate(436.956 80) rotate(52.6008) scale(433.018 290.35)">
<stop stop-color="white" stop-opacity="0.4"/>
<stop offset="1" stop-color="white" stop-opacity="0"/>
</radialGradient>
<linearGradient id="paint5_linear_356_1246" x1="436.956" y1="80" x2="530.527" y2="453.322" gradientUnits="userSpaceOnUse">
<stop stop-color="white"/>
<stop offset="1" stop-color="#EEEDED" stop-opacity="0.5"/>
</linearGradient>
<clipPath id="clip0_356_1246">
<rect x="235.789" width="245" height="344" rx="25" transform="rotate(9.84 235.789 0)" fill="white"/>
</clipPath>
<clipPath id="clip1_356_1246">
<rect width="60" height="60" fill="white" transform="translate(294.457 203.013) rotate(9.84)"/>
</clipPath>
<clipPath id="clip2_356_1246">
<rect y="243.329" width="246" height="344" rx="25" transform="rotate(-43.82 0 243.329)" fill="white"/>
</clipPath>
<clipPath id="clip3_356_1246">
<rect width="60" height="60" fill="white" transform="translate(198.656 316.025) rotate(-43.82)"/>
</clipPath>
<clipPath id="clip4_356_1246">
<rect x="436.956" y="80" width="263" height="344" rx="25" transform="rotate(18.29 436.956 80)" fill="white"/>
</clipPath>
<clipPath id="clip5_356_1246">
<rect width="60" height="60" fill="white" transform="translate(473.702 292.255) rotate(18.29)"/>
</clipPath>
</defs>
</svg>
